<svg width="75" height="49" version="1.1" viewBox="0 0 74.242 48.414" xmlns="http://www.w3.org/2000/svg">
 <path id="adler-logo-a" d="m4.7522 47.736c-2.5231-1.2749-4.0279-3.1431-4.5547-5.6546-1.1548-5.5054 3.9108-13.345 13.016-20.142 5.2423-3.9138 12.853-7.62 21.3-10.373 1.3161-0.42891 1.9138-0.57919 2.0243-0.50895 0.08624 0.05482 0.69633 1.394 1.3558 2.9759 0.65942 1.5819 1.247 2.906 1.3058 2.9423 0.05876 0.03631 0.47115 0.0088 0.91642-0.06119 2.1129-0.332 4.2172-0.27356 5.9664 0.1657 1.0587 0.26586 2.7473 1.1067 3.5313 1.7584 0.86665 0.72042 1.5695 1.6093 2.0472 2.5892 0.51502 1.0564 0.74051 2.0731 0.74051 3.339 0 3.1214-1.4883 6.1376-4.7437 9.6138-0.62347 0.66576-0.8979 1.0339-0.85989 1.1537 0.0307 0.09672 1.0683 2.6204 2.3057 5.6082 2.5088 6.0576 2.5386 6.161 1.9435 6.756l-0.30635 0.30635h-12.976l-0.46338-0.30841c-0.61552-0.40967-0.98714-1.0177-1.7196-2.8134-0.3359-0.82357-0.64837-1.5207-0.69436-1.5491-0.046-0.02843-0.60671 0.21065-1.246 0.53128-2.7695 1.3889-6.504 2.8266-9.6824 3.7272l-1.4555 0.41245h-16.823zm18.045-1.5255c1.9251-0.5182 4.1392-1.2605 6.054-2.0297 1.7261-0.69336 5.0589-2.2408 5.2048-2.4167 0.13971-0.16834-4.4561-11.294-4.8372-11.71-0.20023-0.21854-0.36763-0.29477-0.6473-0.29477-0.77155 0-0.73284-0.07689-4.3076 8.558-1.8174 4.3899-3.3043 8.0567-3.3043 8.1484 0 0.23061 0.06614 0.22142 1.8376-0.25542zm-16.675-0.65201c0.13361-0.30262 1.7639-4.2288 3.6229-8.7248 1.859-4.496 3.9165-9.4677 4.5722-11.048 1.1338-2.7327 1.2834-3.1527 1.1228-3.1527-0.03821 0-0.60901 0.40526-1.2684 0.90057-7.7964 5.856-12.556 12.594-12.254 17.35 0.13346 2.1053 1.2244 3.8025 3.199 4.9768 0.60245 0.35829 0.73119 0.31964 1.0056-0.30188zm40.671-12.993c2.5803-2.787 3.974-5.7888 3.7908-8.1647-0.27097-3.5139-3.3342-5.8567-7.6559-5.8554-1.0596 3.14e-4 -2.7953 0.18304-2.9265 0.30806-0.04638 0.04422 0.66788 1.8912 1.5872 4.1043 0.91936 2.2132 2.2248 5.368 2.9009 7.0108 1.3621 3.3096 1.382 3.3537 1.5114 3.3537 0.05022 0 0.40662-0.34057 0.792-0.75682zm-28.663-15.901c0-0.159 5.1029-12.33 5.6145-13.392 1.2359-2.5638 3.635-3.7653 6.1479-3.079 1.6352 0.44659 2.5878 1.3527 3.5924 3.4168 0.87398 1.7959 2.2694 5.1648 2.289 5.5261 0.01526 0.28202-0.01864 0.29749-2.4474 1.1164-4.7089 1.5878-8.4009 3.121-12.571 5.2203-1.4093 0.70945-2.5765 1.2899-2.5939 1.2899-0.01737 0-0.03158-0.04445-0.03158-0.09877zm23.528-5.9862c-0.17292-0.05076-0.49263-0.23971-0.71046-0.4199-0.9657-0.79881-1.1493-2.2226-0.41775-3.2403 1.2531-1.7432 3.9936-1.0529 4.2859 1.0797 0.10151 0.74061-0.12457 1.3873-0.68797 1.968-0.64786 0.66772-1.5334 0.88733-2.4697 0.61249z" fill="#fece36" stroke-width=".1048"/>
 <path id="adler-logo-text" d="m63.24 46.055c-2.9337-1.2521-5.4861-2.383-5.6719-2.5131-0.62281-0.43591-0.89134-1.2158-0.70992-2.0618 0.10755-0.50149 0.51887-1.0098 1.0268-1.2689 0.74889-0.38206 10.851-4.6341 10.915-4.5944 0.11999 0.07416 0.08615 2.9624-0.03589 3.0634-0.05821 0.04814-0.48683 0.23915-0.9525 0.42446l-0.84667 0.33693-0.02236 2.6217-0.02236 2.6217 0.92549 0.35618c0.50902 0.1959 0.9477 0.41406 0.97486 0.48482 0.02715 0.07075 0.04937 0.73513 0.04937 1.4764 0 1.2306-0.01287 1.3469-0.14817 1.3385-0.08149-0.0051-2.5485-1.0337-5.4822-2.2858zm1.4817-3.9703c0-0.93133-0.02858-1.6942-0.0635-1.6952-0.10615-0.0032-4.2543 1.639-4.2219 1.6714 0.03968 0.03968 4.1395 1.6999 4.2219 1.7097 0.03493 0.0041 0.0635-0.75448 0.0635-1.6858zm6.8585 5.5668c8.77e-4 -1.1406 0.27354-1.5875 0.96865-1.5875 0.56495 0 0.89355 0.40679 0.89355 1.1062v0.33316h0.762v0.762h-2.6247l5.08e-4 -0.61383zm1.3542-0.42757c0-0.3217-0.12702-0.4826-0.381-0.4826-0.25398 0-0.381 0.1609-0.381 0.4826 0 0.2747 0.0064 0.2794 0.381 0.2794 0.37459 0 0.381-0.0047 0.381-0.2794zm-1.3547-2.8533v-0.33867h2.032v-1.27h0.59267v1.9473h-2.6247zm1.27-3.2523-1.2277-0.53127-0.02512-0.33316-0.02512-0.33316 1.2533-0.52674c0.6893-0.28971 1.2816-0.52674 1.3163-0.52674 0.03465 0 0.063 0.15334 0.063 0.34076 0 0.28558-0.03428 0.3538-0.21167 0.42124-0.19518 0.0742-0.21167 0.12246-0.21167 0.61931 0 0.4926 0.01816 0.54712 0.21167 0.63528 0.1747 0.0796 0.21167 0.1559 0.21167 0.43692 0 0.18726-0.02857 0.33786-0.0635 0.33465-0.03493-0.0032-0.61595-0.2449-1.2912-0.5371zm0.33867-0.85407c0-0.16298-0.01828-0.29633-0.04062-0.29633s-0.20112 0.06422-0.39729 0.14271l-0.35666 0.14271 0.33378 0.14734c0.45543 0.20104 0.46078 0.19946 0.46079-0.13643zm-1.6051-3.1538c0.0034-0.29839 0.0475-0.35063 0.73295-0.86783l0.72936-0.55033-1.4659-0.04892v-0.67074h2.6247v0.31928c0 0.30147-0.0403 0.34988-0.72257 0.86783l-0.72257 0.54855 1.4451 0.04892v0.67074h-2.6247l0.0036-0.3175zm-7.5389-1.4714c-1.5436-0.18908-2.8103-1.0592-3.4111-2.3431-0.21471-0.45883-0.27047-0.70018-0.29884-1.2935-0.04378-0.91562 0.11234-1.4836 0.57412-2.0886l0.33923-0.4445h-2.1931c-1.2062 0-2.2534-0.02313-2.327-0.05139-0.20064-0.07699-0.20064-2.5296 0-2.6066 0.07366-0.02827 2.7902-0.05139 6.0367-0.05139 4.4782 0 5.9273 0.02452 6.0044 0.1016 0.06913 0.06913 0.1016 0.47212 0.1016 1.2609 0 1.281 0.0085 1.2621-0.56804 1.2621h-0.30019l0.357 0.38729c0.46259 0.50185 0.67937 1.0049 0.73886 1.7144 0.21238 2.5333-2.1859 4.504-5.0536 4.1528zm1.5671-2.8564c0.97711-0.44389 1.3265-1.6369 0.76168-2.6007-0.38944-0.66452-1.2401-0.98804-2.1287-0.80958-0.87619 0.17596-1.3701 0.66575-1.4969 1.4844-0.126 0.81362 0.36889 1.7064 1.0852 1.9576 0.48768 0.17102 1.367 0.15534 1.7787-0.03171zm5.9683-0.6041v-1.016h0.59267v0.67733c0 0.66604 0.0035 0.67733 0.21167 0.67733 0.20696 0 0.21167-0.01411 0.21167-0.635v-0.635h0.59267v0.635c0 0.62089 0.0047 0.635 0.21167 0.635 0.20918 0 0.21167-0.0085 0.21167-0.71967v-0.71967h0.59267v2.1167h-2.6247zm0-3.5983v-1.143h0.29633c0.29476 0 0.29633 2e-3 0.29633 0.381v0.381h2.032v0.67733h-2.032v0.84667h-0.59267zm1.2511-2.6921-1.2466-0.52527-0.0012-0.33867-0.0012-0.33867 1.1631-0.48584c0.6397-0.26721 1.2298-0.50941 1.3112-0.53822 0.12566-0.04443 0.14817 7.62e-4 0.14817 0.29744 0 0.29524-0.03303 0.36238-0.21167 0.4303-0.19604 0.07453-0.21167 0.12141-0.21167 0.635s0.01563 0.56047 0.21167 0.635c0.17739 0.06744 0.21167 0.13566 0.21167 0.42124 0 0.18742-0.02857 0.33901-0.0635 0.33686-0.03493-0.0021-0.62446-0.24027-1.3101-0.52917zm0.35757-0.86393c0-0.16298-0.02027-0.29633-0.04505-0.29633-0.10064 0-0.63228 0.24897-0.63228 0.2961 0 0.05083 0.49439 0.28702 0.61383 0.29325 0.03493 0.0018 0.0635-0.13004 0.0635-0.29302zm-16.576-1.2483 0.02338-1.2917h12.192v2.54l-12.239 0.04344zm14.968-2.3289c2.54e-4 -0.36089 0.03967-0.79731 0.08758-0.96982 0.20183-0.72671 1.0605-0.89027 1.5353-0.29244l0.1417 0.17842 0.38015-0.273c0.20908-0.15015 0.40249-0.273 0.4298-0.273 0.02731 0 0.04966 0.16795 0.04966 0.37323 0 0.35022-0.02348 0.38806-0.38085 0.61383-0.26705 0.16872-0.38089 0.29753-0.381 0.43111-1.69e-4 0.16936 0.04214 0.1905 0.38085 0.1905h0.381v0.67733h-2.6247l5.08e-4 -0.65617zm1.2695-0.38523c0-0.38858-0.11108-0.56727-0.35262-0.56727-0.19473 0-0.32471 0.25196-0.32471 0.62943 0 0.29577 0.0069 0.3019 0.33867 0.3019h0.33867zm-9.3803 0.06302c-1.5282-0.41135-2.5919-1.448-3.0249-2.9478-0.20254-0.7016-0.14195-2.1095 0.1197-2.7815 0.43079-1.1065 1.3486-1.9641 2.5263-2.3604 0.44527-0.14984 0.7709-0.19391 1.4619-0.19786l0.889-0.0051 0.02229 2.8575c0.01469 1.8833 0.05192 2.8575 0.10921 2.8575 0.0478 0 0.233-0.07453 0.41156-0.16562 0.96312-0.49135 1.2-1.7538 0.55913-2.9795-0.11725-0.22424-0.21319-0.47086-0.21319-0.54803 0-0.15174 1.2364-1.4959 1.418-1.5416 0.23982-0.06038 0.84454 0.91525 1.1193 1.8058 0.10056 0.32597 0.20449 0.91663 0.23096 1.3126 0.15798 2.3637-1.0427 4.1561-3.1459 4.6962-0.62535 0.16058-1.8828 0.1595-2.4833-0.0021zm0.4056-4.1497v-1.572l-0.1905 0.05877c-0.39054 0.12047-0.65405 0.29983-0.88462 0.60213-0.20876 0.2737-0.23721 0.38366-0.23721 0.91685 0 0.5373 0.02763 0.64207 0.24417 0.92597 0.20517 0.26899 0.77605 0.63181 1.0047 0.6385 0.03493 1e-3 0.0635-0.70556 0.0635-1.5702zm7.7047 0.89471v-0.33867h2.6247v0.67733h-2.6247zm0-2.3707v-0.33867l0.78317-0.0012c0.94676-0.0015 1.1955-0.10096 1.2334-0.49305 0.04535-0.46919-0.06495-0.52171-1.0956-0.52171h-0.92097v-0.762h0.84495c1.0987 0 1.4827 0.14137 1.7032 0.62705 0.2009 0.44236 0.19897 0.76307-0.0073 1.2176-0.22768 0.50164-0.52207 0.61065-1.6491 0.61065h-0.89172zm0.0163-4.1651c0.02425-0.33072 0.05801-0.37429 0.49136-0.63397 0.25593-0.15336 0.47503-0.30797 0.4869-0.34357 0.01187-0.0356-0.20705-0.20765-0.48649-0.38232-0.48325-0.30208-0.50807-0.33412-0.50807-0.65597v-0.33838h2.6247v0.67074l-1.4683 0.04892 0.9899 0.65638-0.98992 0.61362 1.4683 0.04892v0.67074h-2.6344zm-11.05 0.21481c-0.10562-0.10562-0.06527-2.2731 0.04436-2.3828 0.05588-0.05588 0.30607-0.1016 0.55598-0.1016h0.45438l-0.43144-0.42023c-0.6087-0.59289-0.84798-1.1456-0.84902-1.9612-0.001147-0.89507-0.018761-0.88586 1.4184-0.74125l1.1631 0.11705-0.02915 0.97367c-0.02718 0.90787-0.01572 0.99338 0.16962 1.2654 0.10932 0.16047 0.33199 0.37002 0.49482 0.46567 0.2755 0.16184 0.46942 0.17685 2.7937 0.21625l2.4977 0.04233v2.54l-4.1126 0.02196c-2.2619 0.01208-4.1384-0.0038-4.1698-0.03528z"/>
</svg>
