<svg class="adlerarrow" width="184" height="125" version="1.1" viewBox="0 0 184 125" xmlns="http://www.w3.org/2000/svg">
  <path id="adlerarrow" d="m107.44 124.33c-3.1193-0.14773-5.7882-0.97581-7.8433-2.4335-0.68997-0.48941-1.0916-0.94202-1.3791-1.5541-0.22624-0.48163-0.29314-0.80794-0.29256-1.427 5.3e-4 -0.4586 0.0116-0.54786 0.11647-0.92656 0.22569-0.81541 1.2805-3.6404 1.894-5.0727 0.30431-0.71042 0.9282-1.9357 1.1966-2.35 0.25844-0.39895 0.5216-0.6679 0.72047-0.7363 0.0788-0.0271 12.118-7.0146 26.754-15.528 18.063-10.506 26.585-15.482 26.529-15.489-0.0454-6e-3 -32.862 1.4756-72.925 3.2918l-72.843 3.3022-0.4654-0.0576c-1.8051-0.22337-3.5185-0.7326-5.2056-1.5471-0.99857-0.48208-1.538-0.86706-2.0966-1.4962-1.1248-1.2669-1.7914-3.3739-1.7382-5.4946 0.0275-1.0964 0.19479-1.8197 0.62879-2.7187 0.52951-1.0968 1.2812-1.9879 2.5048-2.9688 1.4482-1.1611 3.3039-1.972 4.7047-2.056 0.19937-0.0119 32.681-1.3628 72.181-3.0018 39.5-1.639 71.828-2.9896 71.839-3.0012 0.0116-0.0116-7.6997-9.3591-17.136-20.772l-17.157-20.751-0.41687-0.17662c-2.3479-0.99478-5.6509-3.2063-7.4094-4.9609-1.148-1.1455-1.9652-2.2699-2.3939-3.2939-0.33326-0.79599-0.45434-1.4045-0.48109-2.4177-0.0387-1.4648 0.20941-2.58 0.85881-3.8606 0.57008-1.1242 1.177-1.9586 2.0837-2.8648 1.2865-1.2858 2.8792-2.3257 4.6232-3.0185 1.1012-0.43747 2.005-0.6571 3.0211-0.73412 0.61422-0.0465 1.3416 9.1e-4 1.6062 0.1058 0.62936 0.24847 2.9951 1.4412 4.0181 2.0258 0.77442 0.44254 1.3728 0.85911 1.7512 1.2191 0.1932 0.18381 0.62043 0.56952 0.94939 0.85714 5.5334 4.838 10.45 9.6318 15.279 14.899 3.861 4.2106 7.0163 7.9141 10.824 12.705 3.0732 3.8664 6.3531 8.0877 9.294 11.962 4.3503 5.7306 7.2584 9.4334 11.758 14.971 1.6578 2.0403 2.4253 2.945 3.3981 4.0055 0.87159 0.95019 2.2752 2.3488 3.3101 3.2984 1.4153 1.2986 2.1265 2.1676 2.8205 3.4465 1.235 2.2758 1.8119 5.4095 1.3842 7.5185-0.159 0.78405-0.47961 1.5623-1.389 3.3719l-0.65585 1.305-0.72498 0.48254c-3.4185 2.2753-7.9028 5.0032-11.854 7.2107-1.8776 1.0491-4.139 2.2535-6.4161 3.4169-6.6422 3.3936-15.42 7.9814-20.445 10.685-6.6372 3.5718-14.621 8.1029-18.143 10.297-4.6726 2.9108-9.3409 6.2935-13.677 9.9105-0.46433 0.38735-0.51364 0.41884-0.68874 0.43987-0.24756 0.0298-1.4735 0.0202-2.2729-0.0176z" stroke-width=".036249" fill="rgb(64, 64, 65)"/>
</svg>
