<svg class="search-icon" width="512" height="512" version="1.1" viewBox="0 0 512 512" xmlns="http://www.w3.org/2000/svg">
 <path id="lupa" d="m214 344.5c23.6 15 51.6 23.8 81.7 23.8 84.1 0 152.3-68.1 152.3-152.1 0-84.1-68.2-152.2-152.3-152.2s-152.3 68.1-152.3 152.1c0 30.5 9 58.9 24.4 82.7l4.8 6.9-108.6 108.6 34.3 33.7 108.6-108.5zm166.8-43.1c-22.7 22.7-52.9 35.2-85 35.2s-62.3-12.5-85-35.2-35.2-52.9-35.2-85 12.5-62.3 35.2-85 52.9-35.2 85-35.2 62.3 12.5 85 35.2 35.2 52.9 35.2 85-12.5 62.3-35.2 85z" stroke="rgb(64,64,65)" fill="rgb(64,64,65)" stroke-width="18"/>
</svg>
